HIERARCHY
ROOT Hips
{
	OFFSET 0.000000 0.000000 0.000000
	CHANNELS 6 Xposition Yposition Zposition Zrotation Yrotation Xrotation 
	JOINT LHipJoint
	{
		OFFSET 0.000000 0.000000 0.000000
		CHANNELS 3 Zrotation Yrotation Xrotation
		JOINT LeftUpLeg
		{
			OFFSET 1.363060 -1.794630 0.839290
			CHANNELS 3 Zrotation Yrotation Xrotation
			JOINT LeftLeg
			{
				OFFSET 2.448110 -6.726130 0.000000
				CHANNELS 3 Zrotation Yrotation Xrotation
				JOINT LeftFoot
				{
					OFFSET 2.562200 -7.039590 0.000000
					CHANNELS 3 Zrotation Yrotation Xrotation
					JOINT LeftToeBase
					{
						OFFSET 0.157640 -0.433110 2.322550
						CHANNELS 3 Zrotation Yrotation Xrotation
						End Site
						{
							OFFSET 0.000000 0.000000 0.000000
						}
					}
				}
			}
		}
	}
	JOINT RHipJoint
	{
		OFFSET 0.000000 0.000000 0.000000
		CHANNELS 3 Zrotation Yrotation Xrotation
		JOINT RightUpLeg
		{
			OFFSET -1.305520 -1.794630 0.839290
			CHANNELS 3 Zrotation Yrotation Xrotation
			JOINT RightLeg
			{
				OFFSET -2.542530 -6.985550 0.000000
				CHANNELS 3 Zrotation Yrotation Xrotation
				JOINT RightFoot
				{
					OFFSET -2.568260 -7.056230 0.000000
					CHANNELS 3 Zrotation Yrotation Xrotation
					JOINT RightToeBase
					{
						OFFSET -0.164730 -0.452590 2.363150
						CHANNELS 3 Zrotation Yrotation Xrotation
						End Site
						{
							OFFSET 0.000000 0.000000 0.000000
						}
					}
				}
			}
		}
	}
}
MOTION
Frames: 22
Frame Time: 0.008333
-0.056144 16.760171 0.377167 -171.819159 84.158932 -152.910022 -9.575735 -0.476874 -1.415686 -18.989286 3.305303 -43.052717 -2.567093 1.113843 30.076943 1.609337 6.914469 -9.864202 -0.141899 0.000000 -5.671300 11.122162 -2.036457 -4.867485 -2.561720 -17.206578 -13.551469 0.960486 -3.574710 42.524929 0.326658 17.178661 19.574156 7.609800 -0.000000 -87.596700
0.094348 16.757875 0.327496 -174.852771 84.413462 -156.243365 -9.553453 -0.422398 -1.618897 -19.405641 3.544573 -42.306595 -2.579461 1.162085 30.978972 1.680707 7.069117 -11.051078 -0.348500 -0.000001 -5.962600 11.221847 -1.861490 -4.876624 -3.480659 -17.067778 -14.294643 0.731089 -3.727006 44.843283 0.141499 16.894084 21.557128 8.110700 0.000001 -85.558000
0.243835 16.760661 0.272851 -177.614091 84.641514 -159.298924 -9.542707 -0.364635 -1.804810 -19.792613 3.840509 -41.431705 -2.608732 1.176019 31.525052 1.751256 7.210941 -12.209143 -0.557900 -0.000000 -6.481700 11.293117 -1.687678 -4.876811 -4.266791 -16.899202 -15.081702 0.515568 -3.864769 47.098394 -0.062406 16.060882 23.426919 8.283400 0.000000 -82.928000
0.392859 16.767923 0.213162 -179.868702 84.824338 -161.839783 -9.542848 -0.309134 -1.968665 -20.122246 4.165566 -40.447688 -2.644113 1.159224 31.759348 1.818952 7.349093 -13.269261 -0.758100 -0.000000 -7.129800 11.341060 -1.522956 -4.870815 -4.903535 -16.718804 -15.899036 0.318515 -3.990316 49.260124 -0.281238 14.676180 25.088177 8.060100 0.000000 -79.878800
0.541886 16.779200 0.149070 178.413521 84.953398 -163.834216 -9.552136 -0.257329 -2.106492 -20.389399 4.486696 -39.365069 -2.677200 1.115452 31.720552 1.882226 7.496707 -14.171243 -0.938400 -0.000000 -7.797100 11.371152 -1.370687 -4.860687 -5.403141 -16.540023 -16.731855 0.141757 -4.106660 51.303132 -0.510039 12.795129 26.443064 7.426400 0.000001 -76.640600
0.691185 16.794179 0.081308 177.251206 85.021713 -165.258242 -9.568858 -0.210555 -2.216190 -20.591178 4.773547 -38.201216 -2.701287 1.049592 31.454169 1.939328 7.661727 -14.875062 -1.090800 0.000000 -8.380700 11.387656 -1.233848 -4.847587 -5.775386 -16.362776 -17.569424 -0.015071 -4.216995 53.205998 -0.741811 10.522510 27.400611 6.426800 0.000000 -73.441400
0.840867 16.812662 0.010803 176.621150 85.024589 -166.130309 -9.590888 -0.168036 -2.295172 -20.729715 5.000984 -36.977306 -2.712220 0.967145 31.006369 1.988904 7.847750 -15.361461 -1.210399 0.000000 -8.807200 11.394524 -1.115184 -4.829912 -6.031155 -16.179008 -18.404861 -0.154407 -4.323653 54.952896 -0.967497 8.009456 27.892031 5.163101 0.000000 -70.456500
0.990761 16.834594 -0.061469 176.458619 84.961424 -166.508136 -9.615606 -0.128729 -2.344429 -20.810571 5.152740 -35.717572 -2.708800 0.874075 30.421523 2.029988 8.052651 -15.632505 -1.294800 0.000000 -9.046600 11.394978 -1.015183 -4.807243 -6.181138 -15.975617 -19.236653 -0.279693 -4.428274 56.535103 -1.176724 5.435297 27.883491 3.776300 0.000000 -67.786000
1.140590 16.859948 -0.134660 176.684343 84.832920 -166.464416 -9.640585 -0.091376 -2.366875 -20.841140 5.223154 -34.447190 -2.692225 0.776013 29.740606 2.061956 8.268596 -15.708096 -1.344500 0.000000 -9.114100 11.391466 -0.933493 -4.778780 -6.234263 -15.738224 -20.066090 -0.394065 -4.531149 57.948418 -1.359282 2.979198 27.383005 2.416200 0.000001 -65.466000
1.289922 16.888774 -0.207876 177.181866 84.641839 -166.114058 -9.664479 -0.053599 -2.365924 -20.831624 5.218305 -33.185921 -2.665837 0.677639 28.995626 2.084145 8.482342 -15.618945 -1.361500 -0.000000 -9.062700 11.385247 -0.868917 -4.742315 -6.200918 -15.454541 -20.893497 -0.499548 -4.630627 59.190348 -1.506597 0.792990 26.438236 1.210300 -0.000000 -63.479401
1.438284 16.921003 -0.280587 177.886385 84.390552 -165.517968 -9.686750 -0.015775 -2.349680 -20.788159 5.155584 -31.954768 -2.633845 0.582688 28.215217 2.095477 8.674663 -15.403808 -1.349700 0.000000 -8.966000 11.376317 -0.819186 -4.698296 -6.085717 -15.114211 -21.719505 -0.595814 -4.724447 60.257819 -1.612974 -1.019805 25.130001 0.241601 -0.000000 -61.807500
1.585231 16.956487 -0.352356 178.725721 84.081675 -164.750998 -9.708376 0.022636 -2.325233 -20.716641 5.060121 -30.765661 -2.600821 0.493524 27.418227 2.094481 8.824193 -15.099912 -1.313700 0.000001 -8.905500 11.363704 -0.781988 -4.645568 -5.895530 -14.711567 -22.539716 -0.681007 -4.809000 61.145849 -1.676183 -2.409235 23.558827 -0.457100 0.000000 -60.420600
1.730400 16.994978 -0.422998 179.650734 83.717384 -163.867488 -9.731348 0.061857 -2.299512 -20.620101 4.960303 -29.625253 -2.570767 0.411527 26.617287 2.079383 8.909733 -14.738773 -1.258000 0.000000 -8.956400 11.345753 -0.754819 -4.583702 -5.636113 -14.247216 -23.346452 -0.752144 -4.880449 61.848068 -1.697510 -3.374983 21.832296 -0.897600 0.000000 -59.279600
1.873644 17.036034 -0.492550 -179.362883 83.299338 -162.897349 -9.758373 0.101472 -2.279338 -20.497612 4.883918 -28.535217 -2.546540 0.337371 25.819842 2.048288 8.912752 -14.342383 -1.186700 0.000000 -9.180200 11.320375 -0.734783 -4.513732 -5.312319 -13.727116 -24.129343 -0.805962 -4.935272 62.356569 -1.681880 -3.958018 20.058406 -1.122800 0.000000 -58.367600
2.015062 17.079078 -0.561142 -178.350280 82.830105 -161.882263 -9.792432 0.142105 -2.267498 -20.348741 4.852389 -27.495152 -2.529815 0.271131 25.028807 1.999638 8.820170 -13.920354 -1.102600 0.000001 -9.614699 11.285507 -0.719238 -4.435603 -4.930600 -13.163928 -24.882140 -0.840167 -4.970722 62.667322 -1.636657 -4.224880 18.328875 -1.189700 0.000000 -57.575800
2.154457 17.123369 -0.629204 -177.303337 82.307039 -160.825476 -9.837604 0.182327 -2.269648 -20.162721 4.880441 -26.492842 -2.520141 0.213710 24.248490 1.931948 8.623378 -13.473343 -1.007300 0.000000 -10.291900 11.238243 -0.704462 -4.355656 -4.493239 -12.575005 -25.582638 -0.853283 -4.984175 62.767163 -1.573201 -4.269734 16.740968 -1.162099 0.000000 -57.084600
2.292520 17.168183 -0.696928 -176.281494 81.734052 -159.789644 -9.896091 0.224494 -2.280258 -19.942393 4.969907 -25.529010 -2.516769 0.164617 23.479166 1.845505 8.324116 -12.990655 -0.901600 0.000000 -11.198400 11.177504 -0.689237 -4.271670 -4.008982 -11.981671 -26.236993 -0.846330 -4.975445 62.664783 -1.500954 -4.177144 15.336231 -1.088700 0.000000 -56.601099
2.429601 17.212737 -0.764618 -175.313460 81.111319 -158.807331 -9.969947 0.268372 -2.297360 -19.683736 5.112181 -24.597283 -2.517440 0.124264 22.725361 1.741492 7.929778 -12.460513 -0.786300 -0.000001 -12.309700 11.101836 -0.670943 -4.187604 -3.483756 -11.404921 -26.840631 -0.821154 -4.944814 62.361853 -1.430996 -4.038979 14.156565 -1.011600 0.000000 -56.162700
2.566369 17.256332 -0.832338 -174.466018 80.442126 -157.943906 -10.058368 0.315369 -2.313235 -19.394055 5.284175 -23.695271 -2.519756 0.091924 21.988627 1.623418 7.459022 -11.871424 -0.663700 0.000000 -13.549200 11.011753 -0.648042 -4.103204 -2.931493 -10.864821 -27.402937 -0.780762 -4.894284 61.870669 -1.371876 -3.929122 13.209081 -0.957700 0.000000 -55.688899
2.702798 17.298286 -0.900638 -173.673259 79.720373 -157.140226 -10.163606 0.363390 -2.326856 -19.054582 5.471940 -22.820271 -2.519733 0.069808 21.289022 1.492965 6.919130 -11.216399 -0.536300 0.000000 -14.935300 10.906120 -0.621056 -4.024742 -2.341379 -10.373136 -27.913254 -0.727821 -4.825040 61.196472 -1.330686 -3.914656 12.483427 -0.947200 -0.000000 -55.191499
2.839892 17.338242 -0.969016 -173.060283 78.957080 -156.508544 -10.278885 0.414979 -2.326064 -18.693453 5.631800 -21.975130 -2.515958 0.055003 20.621861 1.357763 6.346805 -10.498436 -0.409600 0.000000 -16.303500 10.788781 -0.588484 -3.946837 -1.742914 -9.939808 -28.401245 -0.665661 -4.741494 60.365062 -1.310086 -4.023415 11.941334 -0.985000 0.000000 -54.600500
2.977737 17.375924 -1.037516 -172.599451 78.153728 -156.019645 -10.401436 0.468954 -2.307494 -18.309549 5.739354 -21.161256 -2.505982 0.047594 19.999501 1.222161 5.760966 -9.726157 -0.288100 0.000000 -17.628200 10.661371 -0.551156 -3.870398 -1.137827 -9.563473 -28.872022 -0.596227 -4.646366 59.391181 -1.310997 -4.272885 11.536190 -1.073500 0.000000 -53.934300
